# xmcd CD database file
#
# Track frame offsets:
#	150
#	39225
#	66150
#	105900
#	132825
#	162300
#	204900
#	235800
#	269175
#	294075
#	324300
#
# Disc length: 4651 seconds
#
# Revision: 1
# Processed by: cddbd v1.5.1PL2 Copyright (c) Steve Scherf et al.
# Submitted via: freeDBTagger 0.8.2.1
#
DISCID=9212290b
DTITLE=globe - globe decade-single history 1995‐2004- [CD3]
DYEAR=2005
DGENRE=misc
TTITLE0=DON'T LOOK BACK
TTITLE1=like a prayer
TTITLE2=garden
TTITLE3=try this shoot
TTITLE4=Stop! In the Name of Love
TTITLE5=genesis of next
TTITLE6=Many Classic Moments
TTITLE7=OVER THE RAINBOW
TTITLE8=INSPIRED FROM RED and BLUE
TTITLE9=seize the light
TTITLE10=get it on now feat.KEIKO
EXTD=
EXTT0=
EXTT1=
EXTT2=
EXTT3=
EXTT4=
EXTT5=
EXTT6=
EXTT7=
EXTT8=
EXTT9=
EXTT10=
PLAYORDER=
